<svg id="Layer_1" data-name="Layer 1" xmlns="http://www.w3.org/2000/svg" viewBox="0 0 50 50"><defs><style>.cls-1{fill:#9cc212;}</style></defs><path class="cls-1" d="M46,29.14a.79.79,0,0,0-.52-.26H41c-.26-6.7,4.68-11.32,4.75-11.38a.74.74,0,0,0,.19-.72.69.69,0,0,0-.58-.45C40.26,16,37,20,35.31,23.09c-.84-2.93-4.42-4.49-7-4.88a.65.65,0,0,0-.59,1,5.32,5.32,0,0,1-.52,7c-.84-1.5-2.47-2.34-4.75-2.34L15.73,21l-.52-2.73c.33-.52.65-1,.91-1.5h0a4,4,0,0,0-.91-5.53,3.94,3.94,0,0,0-5.52.91c-.07.07-4.82,6.7-5.53,14.38a3.43,3.43,0,0,0,.45,2.14l-.84,13c-.2,3,4.42,3.38,4.61.33L9.1,31l3.77,2.41,3.77,8.39a2.37,2.37,0,0,0,3.06,1.17,2.32,2.32,0,0,0,1.17-3.06l-4-9a2.09,2.09,0,0,0-.85-1l-3.9-2.41a19.27,19.27,0,0,1,.72-3.44,1.79,1.79,0,0,0,.45.32l9.11,3.84a1.26,1.26,0,0,0,.71.13c.07.19.13.32.2.52H20.42a.57.57,0,0,0-.52.26c-.13.19-.2.32-.13.52l2.4,12.88a2.24,2.24,0,0,0,2.15,1.75h.85a2.81,2.81,0,0,0,5.46,0h4.75a2.81,2.81,0,0,0,5.46,0h.85a2.2,2.2,0,0,0,2.14-1.75l2.41-12.88A4.09,4.09,0,0,0,46,29.14Zm-39,12.75a1,1,0,0,1-2-.13l.78-11.65a4,4,0,0,0,2,.72ZM13.78,23a.75.75,0,0,1-.39-.46L12,15.41a.68.68,0,0,0-.78-.52.69.69,0,0,0-.52.79l1.3,6.5h0a21.11,21.11,0,0,0-1.23,5.33.76.76,0,0,0,.26.72l4.22,2.6a.82.82,0,0,1,.39.46l4,9a1,1,0,0,1-.85,1.43.87.87,0,0,1-1-.58L14,32.59a.51.51,0,0,0-.26-.26l-4.36-2.8a.69.69,0,0,0-.52-.07,2.66,2.66,0,0,1-3.38-2.79c.65-7.29,5.2-13.66,5.27-13.73A2.66,2.66,0,1,1,15,16.07c-.07.13-.13.19-.2.32l-.26-1.5a.66.66,0,1,0-1.3.26l1.3,6.44a.72.72,0,0,0,.39.46c11.52,5.07,5.21,2.28,8.52,3.77a.68.68,0,1,1-.58,1.24Zm10.54,5a1.85,1.85,0,0,0,.65-.78A1.76,1.76,0,0,0,25,26a3.17,3.17,0,0,1,1.3,1.69.64.64,0,0,0,1,.33c1.56-1.3,3.77-4.55,2.21-8a7.29,7.29,0,0,1,4.1,2.73c1.49,2.41-.65,4.16.52,4.62.39.19.78,0,1-.59,1.56-4,4.36-8.26,8.59-8.91a16.75,16.75,0,0,0-4,11.12H24.58A3.58,3.58,0,0,0,24.32,28Zm3.51,17.11a1.47,1.47,0,0,1-1.49-1.5h0a1.5,1.5,0,0,1,3,0h0A1.47,1.47,0,0,1,27.83,45.14Zm10.21,0a1.47,1.47,0,0,1-1.49-1.5h0a1.5,1.5,0,0,1,3,0h0A1.47,1.47,0,0,1,38,45.14Zm4.43-2.86a.91.91,0,0,1-.85.71h-.84a2.82,2.82,0,0,0-5.47,0H30.5A2.81,2.81,0,0,0,25,43h-.72a.85.85,0,0,1-.85-.65L21.2,30.24H44.74Z"/><path class="cls-1" d="M20.22,9.24A3.56,3.56,0,0,0,21,6.7a3.43,3.43,0,0,0-3.77-3.12,3.33,3.33,0,0,0-2.34,1.23,3.56,3.56,0,0,0-.78,2.54A3.49,3.49,0,0,0,20.22,9.24ZM15.93,5.59a2.18,2.18,0,0,1,3.84,1.17c.26,2.87-4,3.19-4.3.39A2,2,0,0,1,15.93,5.59Z"/></svg>