<svg id="Layer_1" data-name="Layer 1" xmlns="http://www.w3.org/2000/svg" viewBox="0 0 50 50"><defs><style>.cls-1{fill:#9cc212;}</style></defs><path class="cls-1" d="M13.74,33.64a5.32,5.32,0,1,0-7.4-1.33,5.25,5.25,0,0,0,1.33,1.33,8.64,8.64,0,0,0-5.6,8.09V46.6a.76.76,0,1,0,1.51,0V41.72a7.12,7.12,0,0,1,14.24,0v4.87a.76.76,0,0,0,1.52,0V41.72A8.66,8.66,0,0,0,13.74,33.64ZM6.9,29.28a3.81,3.81,0,1,1,3.82,3.79h0A3.81,3.81,0,0,1,6.9,29.28Z"/><path class="cls-1" d="M42.33,33.64a5.32,5.32,0,1,0-7.4-1.33,5.25,5.25,0,0,0,1.33,1.33,8.64,8.64,0,0,0-5.6,8.09V46.6a.76.76,0,1,0,1.52,0V41.72a7.12,7.12,0,0,1,14.24,0v4.87a.76.76,0,1,0,1.51,0V41.72A8.65,8.65,0,0,0,42.33,33.64Zm-6.84-4.36a3.8,3.8,0,1,1,3.81,3.79h0A3.8,3.8,0,0,1,35.49,29.28Z"/><path class="cls-1" d="M10.05,18.83v3.09a.76.76,0,0,0,.76.76.74.74,0,0,0,.49-.18L15.51,19H32.12a2.62,2.62,0,0,0,2.62-2.63V15.14l4,3.39a.76.76,0,0,0,1.07-.09A.74.74,0,0,0,40,18V14.87a2.62,2.62,0,0,0,1.87-2.53V5.27a2.62,2.62,0,0,0-2.63-2.63H17.92a2.63,2.63,0,0,0-2.63,2.63h0V6.62h-4.5A2.62,2.62,0,0,0,8.16,9.24v7.08A2.65,2.65,0,0,0,10.05,18.83ZM16.83,5.24a1.11,1.11,0,0,1,1.09-1.11H39.24a1.12,1.12,0,0,1,1.12,1.11v7.1a1.12,1.12,0,0,1-1.12,1.12.75.75,0,0,0-.75.75v2.11l-3.18-2.69a.78.78,0,0,0-.51-.18h-.07V9.21A2.62,2.62,0,0,0,32.1,6.59H16.83Zm-7.13,4A1.11,1.11,0,0,1,10.81,8.1H32.12a1.11,1.11,0,0,1,1.11,1.11v7.08a1.11,1.11,0,0,1-1.11,1.11H15.24a.73.73,0,0,0-.51.18l-3.17,2.68V18.18a.76.76,0,0,0-.76-.76,1.11,1.11,0,0,1-1.12-1.11h0Z"/></svg>