<svg id="Layer_1" data-name="Layer 1" xmlns="http://www.w3.org/2000/svg" viewBox="0 0 50 50"><defs><style>.cls-1{fill:#9cc212;}</style></defs><path class="cls-1" d="M47.41,46.18H33.75a11.16,11.16,0,0,0,5.88-11.41h3.15a.66.66,0,0,0,.7-.7V17.12h2.38a2,2,0,1,0,0-4.06H43.48V6.76a1.3,1.3,0,0,0-.14-.49L40.05,2.56a.79.79,0,0,0-.56-.21.64.64,0,0,0-.56.28l-3,3.71a1,1,0,0,0-.14.42v6.3H33.4V6.76a1.3,1.3,0,0,0-.14-.49L30,2.56a.79.79,0,0,0-.56-.21.64.64,0,0,0-.56.28l-3,3.71a1,1,0,0,0-.14.42v6.3H23.39V6.76a1.3,1.3,0,0,0-.14-.49L20,2.56a.79.79,0,0,0-.56-.21.64.64,0,0,0-.56.28l-3,3.71a1,1,0,0,0-.14.42v6.3H13.38V6.76a1.3,1.3,0,0,0-.14-.49L10.09,2.56a.79.79,0,0,0-.56-.21A.64.64,0,0,0,9,2.63L6,6.27a.61.61,0,0,0-.21.42V13H3.93a2.15,2.15,0,0,0-2,2.1,2,2,0,0,0,2,2h2v17a.66.66,0,0,0,.7.7h6.23a.66.66,0,0,0,.7-.7V17.12H15.9v17a.66.66,0,0,0,.7.7H20c-.21,5.6,4.41,9.38,9.8,8.82,6.16-1.19,8.54-9.1,3.36-12.74h0a6,6,0,0,0-8.68,1.89,5.05,5.05,0,0,0,.7,5.74,5,5,0,0,0,4.76,1c3.43-1.4,2.38-5.25-.35-4.76-1.26.21-1.89,1.61-1.05,2a.69.69,0,0,0,.91-.35c.49-1.05,2.66.7-.07,1.82a3.76,3.76,0,0,1-3.22-.7,3.69,3.69,0,0,1-.49-4.13c3-5.39,11.55-.35,8.19,5.67-2.31,4.06-7.28,3.92-10.43,1.19a7.56,7.56,0,0,1,3.85-12.6c6.65-1.75,11.69,4.34,11,10a10.41,10.41,0,0,1-8,8.47c-1.33.28-1.47.21-9.8.21a6.54,6.54,0,0,0-4.62-6.86.63.63,0,0,0-.7.21.75.75,0,0,0-.07.77,4.85,4.85,0,0,1,0,4.76c-.28-4.48-4.62-5.67-4.62-5.74a.63.63,0,0,0-.7.21.75.75,0,0,0-.07.77,4.85,4.85,0,0,1,0,4.76c-.28-4.48-4.62-5.67-4.62-5.74a.63.63,0,0,0-.7.21.75.75,0,0,0-.07.77,4.69,4.69,0,0,1-.91,5.88H2.88a.7.7,0,1,0,0,1.4H47.41a.66.66,0,0,0,.7-.7A.72.72,0,0,0,47.41,46.18ZM42.08,33.37h-2.8a11,11,0,0,0-2-3.78V17.12h4.83ZM37.25,7,39.56,4.1,42.08,7v6.09H37.25Zm-10,0L29.55,4.1,32.07,7v6.09H27.24Zm-10,0L19.54,4.1,22.06,7v6.09H17.23Zm-10,0L9.53,4.1,12.05,7v6.09H7.22ZM3.3,15.09a.63.63,0,0,1,.63-.63H45.86a.63.63,0,0,1,0,1.26H3.93A.63.63,0,0,1,3.3,15.09ZM32.07,26.23h-.14a4.1,4.1,0,0,0-.91-.14h-.21a12.12,12.12,0,0,0-3.57.21V17.12h4.83Zm-20,7.14H7.22V17.12h4.83Zm5.18-16.25h4.83V29.31a8.8,8.8,0,0,0-2,4.06H17.23Zm7,10.37a5.84,5.84,0,0,0-.84.56V17.12h2.38v9.6A15.69,15.69,0,0,0,24.23,27.49Zm9.24-.77v-9.6h2.38V28.19A7.82,7.82,0,0,0,33.47,26.72ZM19.05,46.18H16a6,6,0,0,0,.91-4.83A4.84,4.84,0,0,1,19.05,46.18Zm-5.39,0H10.58a6,6,0,0,0,.91-4.83A5.1,5.1,0,0,1,13.66,46.18ZM6,41.35a4.77,4.77,0,0,1,2.17,4.83h-3A5.71,5.71,0,0,0,6,41.35Z"/></svg>