<svg id="Layer_1" data-name="Layer 1" xmlns="http://www.w3.org/2000/svg" viewBox="0 0 150 45"><defs><style>.cls-1,.cls-2{fill:#ffffff;}.cls-2{fill-rule:evenodd;}</style></defs><path class="cls-1" d="M57.23,10.6a2.35,2.35,0,0,0-1-1,2.89,2.89,0,0,0-1.44-.34,3.06,3.06,0,0,0-1.61.41,2.91,2.91,0,0,0-1.11,1.17,3.85,3.85,0,0,0-.39,1.77,3.78,3.78,0,0,0,.4,1.79,2.9,2.9,0,0,0,1.12,1.18,3.37,3.37,0,0,0,1.68.41,2.86,2.86,0,0,0,1.92-.63,3,3,0,0,0,1-1.74H54.29V12.07h5.56v1.79a4.87,4.87,0,0,1-.88,2,5.2,5.2,0,0,1-1.75,1.46,5.06,5.06,0,0,1-2.38.55,5.4,5.4,0,0,1-2.69-.67,4.94,4.94,0,0,1-1.88-1.86,5.36,5.36,0,0,1-.68-2.7,5.43,5.43,0,0,1,.68-2.71,5,5,0,0,1,1.88-1.87,5.35,5.35,0,0,1,2.67-.67,5.27,5.27,0,0,1,3,.85A4.3,4.3,0,0,1,59.6,10.6Z"/><path class="cls-1" d="M63.43,6.9V17.77h-2V6.9Z"/><path class="cls-1" d="M73,14.32H67a2,2,0,0,0,.61,1.38,1.94,1.94,0,0,0,1.34.5,1.67,1.67,0,0,0,1.63-1h2.22a3.67,3.67,0,0,1-1.35,1.94A4,4,0,0,1,69,17.9a4.21,4.21,0,0,1-2.11-.52,3.71,3.71,0,0,1-1.46-1.48,4.58,4.58,0,0,1-.52-2.2,4.55,4.55,0,0,1,.52-2.22A3.64,3.64,0,0,1,66.89,10,4.3,4.3,0,0,1,69,9.5a4.24,4.24,0,0,1,2.08.5,3.47,3.47,0,0,1,1.42,1.42,4.24,4.24,0,0,1,.51,2.1A4.83,4.83,0,0,1,73,14.32ZM70.9,12.94a1.6,1.6,0,0,0-.58-1.27A2,2,0,0,0,69,11.19a1.87,1.87,0,0,0-1.29.46A2,2,0,0,0,67,12.94Z"/><path class="cls-1" d="M81.39,10.43A3.51,3.51,0,0,1,82.28,13v4.77h-2v-4.5a2.09,2.09,0,0,0-.49-1.49,1.73,1.73,0,0,0-1.32-.52,1.76,1.76,0,0,0-1.34.52,2.1,2.1,0,0,0-.5,1.49v4.5h-2V9.63h2v1a3,3,0,0,1,1-.83A3.3,3.3,0,0,1,79,9.51,3.15,3.15,0,0,1,81.39,10.43Z"/><path class="cls-1" d="M84.2,11.48A3.69,3.69,0,0,1,85.55,10a3.62,3.62,0,0,1,1.89-.51A3.48,3.48,0,0,1,89,9.84a3,3,0,0,1,1.14.92V6.9h2.09V17.77H90.1v-1.2a2.8,2.8,0,0,1-1.07,1,3.66,3.66,0,0,1-3.48-.17,3.69,3.69,0,0,1-1.35-1.49,4.76,4.76,0,0,1-.49-2.21A4.71,4.71,0,0,1,84.2,11.48Zm5.62.93a2.08,2.08,0,0,0-.79-.82,2.2,2.2,0,0,0-2.13,0,2.15,2.15,0,0,0-.79.82,2.56,2.56,0,0,0-.3,1.27,2.67,2.67,0,0,0,.3,1.29,2.16,2.16,0,0,0,.8.84,1.94,1.94,0,0,0,1,.3A2.12,2.12,0,0,0,89,15.81a2.08,2.08,0,0,0,.79-.82,2.62,2.62,0,0,0,.3-1.29A2.62,2.62,0,0,0,89.82,12.41Z"/><path class="cls-1" d="M94.17,11.48A3.65,3.65,0,0,1,95.5,10a3.59,3.59,0,0,1,1.89-.51A3.22,3.22,0,0,1,99,9.87a3.13,3.13,0,0,1,1.1.92V9.63h2.07v8.14h-2.07V16.58a3,3,0,0,1-1.1,1,3.31,3.31,0,0,1-1.6.37,3.43,3.43,0,0,1-1.88-.53,3.64,3.64,0,0,1-1.33-1.49,4.77,4.77,0,0,1-.5-2.21A4.71,4.71,0,0,1,94.17,11.48Zm5.62.93a2.1,2.1,0,0,0-1.87-1.1,2,2,0,0,0-1.84,1.09,2.47,2.47,0,0,0-.31,1.27A2.57,2.57,0,0,0,96.08,15a2.14,2.14,0,0,0,.79.84,2,2,0,0,0,1,.3A2.14,2.14,0,0,0,99.79,15a3,3,0,0,0,0-2.58Z"/><path class="cls-1" d="M106.22,6.9V17.77h-2.06V6.9Z"/><path class="cls-1" d="M115.76,14.32h-6a2,2,0,0,0,.61,1.38,1.94,1.94,0,0,0,1.34.5,1.67,1.67,0,0,0,1.63-1h2.22a3.67,3.67,0,0,1-1.35,1.94,4,4,0,0,1-2.45.75,4.21,4.21,0,0,1-2.11-.52,3.65,3.65,0,0,1-1.46-1.48,4.47,4.47,0,0,1-.52-2.2,4.66,4.66,0,0,1,.51-2.22A3.73,3.73,0,0,1,109.68,10a4.3,4.3,0,0,1,2.13-.51,4.24,4.24,0,0,1,2.08.5,3.47,3.47,0,0,1,1.42,1.42,4.24,4.24,0,0,1,.51,2.1A4.83,4.83,0,0,1,115.76,14.32Zm-2.07-1.38a1.6,1.6,0,0,0-.58-1.27,2,2,0,0,0-1.36-.48,1.87,1.87,0,0,0-1.29.46,2,2,0,0,0-.64,1.29Z"/><path class="cls-1" d="M52.15,33.77h3.38V35.4H50.09V25.15h2.06Z"/><path class="cls-1" d="M56.8,29.11a3.58,3.58,0,0,1,1.34-1.46A3.48,3.48,0,0,1,60,27.13a3.29,3.29,0,0,1,1.6.37,3.19,3.19,0,0,1,1.09.92V27.26h2.07V35.4H62.71V34.21a3,3,0,0,1-1.09.95,3.36,3.36,0,0,1-1.61.38A3.45,3.45,0,0,1,58.14,35a3.73,3.73,0,0,1-1.34-1.49,4.81,4.81,0,0,1-.49-2.22A4.71,4.71,0,0,1,56.8,29.11Zm5.62.94a2.1,2.1,0,0,0-3.71,0,2.56,2.56,0,0,0-.3,1.27,2.67,2.67,0,0,0,.3,1.29,2.17,2.17,0,0,0,.79.85,2.08,2.08,0,0,0,1,.29,2.19,2.19,0,0,0,1.08-.29,2.08,2.08,0,0,0,.79-.82,2.73,2.73,0,0,0,.29-1.29A2.69,2.69,0,0,0,62.42,30.05Z"/><path class="cls-1" d="M73.66,28.06a3.53,3.53,0,0,1,.9,2.57V35.4H72.5V30.91A2.06,2.06,0,0,0,72,29.42a1.7,1.7,0,0,0-1.32-.53,1.73,1.73,0,0,0-1.34.53,2.06,2.06,0,0,0-.5,1.49V35.4h-2V27.26h2v1a2.81,2.81,0,0,1,1.06-.83,3.23,3.23,0,0,1,1.4-.3A3.14,3.14,0,0,1,73.66,28.06Z"/><path class="cls-1" d="M76.47,29.11a3.6,3.6,0,0,1,1.35-1.46,3.54,3.54,0,0,1,1.89-.52,3.49,3.49,0,0,1,1.52.35,2.9,2.9,0,0,1,1.14.92V24.53h2.09V35.4H82.37V34.2a2.8,2.8,0,0,1-1.07,1,3.4,3.4,0,0,1-1.6.37A3.51,3.51,0,0,1,77.82,35a3.75,3.75,0,0,1-1.35-1.49A4.93,4.93,0,0,1,76,31.3,4.83,4.83,0,0,1,76.47,29.11Zm5.62.94a2.11,2.11,0,0,0-1.86-1.11,2.05,2.05,0,0,0-1.06.28,2.12,2.12,0,0,0-.79.81,2.56,2.56,0,0,0-.3,1.27,2.67,2.67,0,0,0,.3,1.29,2.19,2.19,0,0,0,.8.85,2.08,2.08,0,0,0,1,.29,2.12,2.12,0,0,0,1.07-.29,2,2,0,0,0,.79-.82,2.62,2.62,0,0,0,.3-1.29A2.58,2.58,0,0,0,82.09,30.05Z"/><path class="cls-1" d="M87.8,35.18a3.2,3.2,0,0,1-1.26-1A2.48,2.48,0,0,1,86,32.83H88.1a1.12,1.12,0,0,0,.47.78,1.57,1.57,0,0,0,1,.31,1.53,1.53,0,0,0,.92-.24.69.69,0,0,0,.33-.6.63.63,0,0,0-.4-.59,8,8,0,0,0-1.29-.44,9.68,9.68,0,0,1-1.49-.45,2.64,2.64,0,0,1-1-.72,1.93,1.93,0,0,1-.42-1.31,2.09,2.09,0,0,1,.39-1.23,2.59,2.59,0,0,1,1.12-.89,4.24,4.24,0,0,1,1.71-.32,3.47,3.47,0,0,1,2.32.73,2.69,2.69,0,0,1,1,2h-2a1.08,1.08,0,0,0-.41-.77A1.79,1.79,0,0,0,88.52,29a.66.66,0,0,0-.3.57.69.69,0,0,0,.41.63,6.9,6.9,0,0,0,1.28.43,13.1,13.1,0,0,1,1.46.45,2.61,2.61,0,0,1,1,.73,2,2,0,0,1,.43,1.3,2.19,2.19,0,0,1-.39,1.27,2.58,2.58,0,0,1-1.11.87,4.3,4.3,0,0,1-1.7.32A4.24,4.24,0,0,1,87.8,35.18Z"/><path class="cls-1" d="M94.47,29.12a3.65,3.65,0,0,1,1.42-1.47A4.21,4.21,0,0,1,98,27.13a4,4,0,0,1,2.5.76A3.59,3.59,0,0,1,101.81,30H99.6a1.65,1.65,0,0,0-.6-.83,1.73,1.73,0,0,0-1-.3,1.68,1.68,0,0,0-1.39.64,2.79,2.79,0,0,0-.52,1.81,2.74,2.74,0,0,0,.52,1.8,1.68,1.68,0,0,0,1.39.64,1.57,1.57,0,0,0,1.64-1.11h2.21a3.75,3.75,0,0,1-1.33,2.1,4,4,0,0,1-2.5.78A4.11,4.11,0,0,1,95.89,35a3.57,3.57,0,0,1-1.42-1.46,5,5,0,0,1,0-4.43Z"/><path class="cls-1" d="M103.29,29.11a3.58,3.58,0,0,1,1.34-1.46,3.49,3.49,0,0,1,1.89-.52,3.28,3.28,0,0,1,1.59.37,3.09,3.09,0,0,1,1.09.92V27.26h2.08V35.4H109.2V34.21a2.9,2.9,0,0,1-1.09.95,3.36,3.36,0,0,1-1.61.38,3.48,3.48,0,0,1-1.87-.53,3.73,3.73,0,0,1-1.34-1.49,4.81,4.81,0,0,1-.49-2.22A4.71,4.71,0,0,1,103.29,29.11Zm5.62.94A2.11,2.11,0,0,0,107,28.94a2,2,0,0,0-1.05.28,2.05,2.05,0,0,0-.79.81,2.56,2.56,0,0,0-.3,1.27,2.67,2.67,0,0,0,.3,1.29,2.24,2.24,0,0,0,.79.85,2.08,2.08,0,0,0,1.05.29,2.16,2.16,0,0,0,1.08-.29,2.08,2.08,0,0,0,.79-.82,2.62,2.62,0,0,0,.29-1.29A2.58,2.58,0,0,0,108.91,30.05Z"/><path class="cls-1" d="M116.44,27.51a3.35,3.35,0,0,1,1.6-.38,3.48,3.48,0,0,1,1.88.52,3.58,3.58,0,0,1,1.34,1.46,4.65,4.65,0,0,1,.49,2.19,4.81,4.81,0,0,1-.49,2.22A3.73,3.73,0,0,1,119.92,35a3.49,3.49,0,0,1-1.88.53,3.32,3.32,0,0,1-1.58-.37,3.29,3.29,0,0,1-1.11-.93v5h-2.06v-12h2.06v1.18A3.13,3.13,0,0,1,116.44,27.51ZM119.35,30a2.05,2.05,0,0,0-.79-.81,2.11,2.11,0,0,0-1.07-.28,2,2,0,0,0-1,.29,2,2,0,0,0-.79.83,2.56,2.56,0,0,0-.3,1.27,2.6,2.6,0,0,0,.3,1.28,2.11,2.11,0,0,0,.79.83,2.08,2.08,0,0,0,1,.29,2.12,2.12,0,0,0,1.07-.29,2.21,2.21,0,0,0,.79-.84,2.66,2.66,0,0,0,.3-1.3A2.56,2.56,0,0,0,119.35,30Z"/><path class="cls-1" d="M123.39,26a1.21,1.21,0,0,1,0-1.72,1.35,1.35,0,0,1,1.81,0,1.21,1.21,0,0,1,0,1.72,1.37,1.37,0,0,1-1.81,0Zm1.92,1.31V35.4h-2.06V27.26Z"/><path class="cls-1" d="M134.2,28.06a3.53,3.53,0,0,1,.9,2.57V35.4H133V30.91a2.06,2.06,0,0,0-.49-1.49,1.7,1.7,0,0,0-1.32-.53,1.75,1.75,0,0,0-1.34.53,2.06,2.06,0,0,0-.5,1.49V35.4h-2V27.26h2v1a2.81,2.81,0,0,1,1.06-.83,3.23,3.23,0,0,1,1.4-.3A3.14,3.14,0,0,1,134.2,28.06Z"/><path class="cls-1" d="M141.84,27.49a3,3,0,0,1,1.09.93V27.26H145v8.2a4.27,4.27,0,0,1-.46,2,3.24,3.24,0,0,1-1.36,1.41,4.36,4.36,0,0,1-2.21.53,4.7,4.7,0,0,1-2.84-.81,3,3,0,0,1-1.26-2.21h2a1.49,1.49,0,0,0,.69.89,2.46,2.46,0,0,0,1.3.33,2,2,0,0,0,1.46-.53,2.17,2.17,0,0,0,.56-1.63V34.2a3.11,3.11,0,0,1-1.1.95,3.18,3.18,0,0,1-1.59.39,3.51,3.51,0,0,1-1.88-.53A3.75,3.75,0,0,1,137,33.52a4.93,4.93,0,0,1-.49-2.22,4.83,4.83,0,0,1,.49-2.19,3.65,3.65,0,0,1,1.34-1.46,3.49,3.49,0,0,1,1.89-.52A3.4,3.4,0,0,1,141.84,27.49Zm.79,2.56a2.11,2.11,0,0,0-1.86-1.11,2.05,2.05,0,0,0-1.06.28,2.12,2.12,0,0,0-.79.81,2.56,2.56,0,0,0-.3,1.27,2.67,2.67,0,0,0,.3,1.29,2.19,2.19,0,0,0,.8.85,2.08,2.08,0,0,0,1.05.29,2.12,2.12,0,0,0,1.07-.29,2,2,0,0,0,.79-.82,2.62,2.62,0,0,0,.3-1.29A2.58,2.58,0,0,0,142.63,30.05Z"/><path class="cls-2" d="M12.33,27.52A11.61,11.61,0,0,1,15,19c1.59-1.74,3.72-2.57,6.9-3.15s7.72.46,10.6-2.5c.45,18.41-12.92,21-19.47,15.84a18.71,18.71,0,0,1,8.33-6c2.51-.92,4.79-1.37,7.12-4.07-3.42,2.33-6.17,2.5-8.2,3.14A15.7,15.7,0,0,0,12.33,27.52Z"/><path class="cls-1" d="M22.42,7A15.38,15.38,0,1,1,7,22.42,15.4,15.4,0,0,1,22.42,7m0-2A17.42,17.42,0,1,0,39.84,22.42,17.42,17.42,0,0,0,22.42,5Z"/></svg>