<svg id="Layer_1" data-name="Layer 1" xmlns="http://www.w3.org/2000/svg" viewBox="0 0 50 50"><defs><style>.cls-1,.cls-2{fill:#102e19;}.cls-1{fill-rule:evenodd;}</style></defs><path class="cls-1" d="M10.53,32.31a16.58,16.58,0,0,1,3.86-12.26c2.28-2.5,5.35-3.7,9.91-4.52s11.07.66,15.2-3.59C40.15,38.35,21,42.15,11.57,34.67a26.93,26.93,0,0,1,12-8.57c3.61-1.31,6.87-2,10.22-5.83C28.83,23.6,24.89,23.84,22,24.76A22.51,22.51,0,0,0,10.53,32.31Z"/><path class="cls-2" d="M25,2.93A22.07,22.07,0,1,1,2.93,25,22.09,22.09,0,0,1,25,2.93M25,0A25,25,0,1,0,50,25,25,25,0,0,0,25,0Z"/></svg>