<svg id="Layer_1" data-name="Layer 1" xmlns="http://www.w3.org/2000/svg" viewBox="0 0 50 50"><defs><style>.cls-1{fill:#9cc212;}</style></defs><path class="cls-1" d="M10.27,6a3.8,3.8,0,0,0,7.6,0V5.68h1.8A.65.65,0,0,0,20.36,5a.66.66,0,0,0-.69-.69H17.46A3.8,3.8,0,0,0,10.27,6Zm6.22,0a2.45,2.45,0,0,1-2.42,2.42,2.36,2.36,0,0,1-2.35-2.7h4.77C16.42,5.82,16.49,5.89,16.49,6ZM15.73,4.3H12.34a2.49,2.49,0,0,1,1.73-.69A2.45,2.45,0,0,1,15.73,4.3Z"/><path class="cls-1" d="M47.24,41.48,43.79,38a.64.64,0,0,0-.49-.21H39.09V36.3h1.59a.66.66,0,0,0,.69-.69,3.47,3.47,0,0,0-3.46-3.46H34.59a3.47,3.47,0,0,0-3.45,3.46.66.66,0,0,0,.69.69h1.59v1.52H30.17l-2.9-10.16a.69.69,0,0,0-.35-.41l-1.1-.63a1.9,1.9,0,0,0-1.11-1.86l-6.63-3.39V16.19a4.63,4.63,0,1,0-9.26,0c0,10.85-.14,11.06.27,12.23l1.39,6.77-7,5.67A2.38,2.38,0,0,0,3,44.11l2.15,2.76A2.31,2.31,0,1,0,8.82,44l-.76-1,2.28-1.8-.49,3.39a2.65,2.65,0,0,0,.56,1.87,2.42,2.42,0,0,0,1.72.83h3.6a2.35,2.35,0,0,0,0-4.7h-.9c.76-5.32.76-5.12.69-5.53l3.25-2.63c1.73-1.38.55-3.11-.35-5.32A5.7,5.7,0,0,1,18,26.9v-1l4.77,2.42a2,2,0,0,0,2.35-.41l.76.41,2.69,9.47H26.85a2,2,0,0,0-2,2v3.11a2,2,0,0,0,2,2h.28a3.59,3.59,0,0,0,7.05,0h3.94a3.59,3.59,0,0,0,7.05,0h.69a1.56,1.56,0,0,0,1.59-1.59V41.9A.61.61,0,0,0,47.24,41.48ZM11,30.84a4.39,4.39,0,0,0,2.49.69,4,4,0,0,0,.9-.07l.2.49-2.9,2.28Zm2.63,13a.75.75,0,0,0,.55.21h1.73a1,1,0,0,1,0,1.93h-3.6a.85.85,0,0,1-.69-.34.78.78,0,0,1-.21-.76L12.13,40l2.15-1.73-.69,5A.41.41,0,0,0,13.66,43.83Zm9.88-16.72-7.26-3.66c-.07-.07-.21-.14-.28-.21l-3.1-5a.7.7,0,0,0-1-.21.68.68,0,0,0-.21,1l3.11,5a2.25,2.25,0,0,0,.83.76l1.11.55v1.8a7.09,7.09,0,0,0,.48,2.83c1,2.56,1.52,3.11.76,3.66-1.38,1.11-10.23,8.16-11.33,9a.74.74,0,0,0-.14,1l1.17,1.52a.85.85,0,0,1-.21,1.31,1,1,0,0,1-1.31-.21L4.05,43.42A1.33,1.33,0,0,1,4.26,42c12.44-9.89,12.09-9.33,11.81-10l-.62-1.53a.79.79,0,0,0-.9-.41,2.8,2.8,0,0,1-1.1.21,3.22,3.22,0,0,1-3-2.14c-.28-1.53-.21.69-.21-11.82a3.25,3.25,0,1,1,6.5,0v3.11l-1.52-2.49a.69.69,0,0,0-1-.21.68.68,0,0,0-.21,1l2.9,4.7a.55.55,0,0,0,.28.28l6.91,3.52a.66.66,0,0,1,.28.83A.81.81,0,0,1,23.54,27.11Zm11.05,6.42h3.32a2,2,0,0,1,1.94,1.39H32.59A2.11,2.11,0,0,1,34.59,33.53Zm.21,2.77h2.9v1.52H34.8Zm-4,10.16A2.22,2.22,0,1,1,33,44.25,2.19,2.19,0,0,1,30.79,46.46Zm10.85,0a2.22,2.22,0,1,1,2.22-2.21A2.19,2.19,0,0,1,41.64,46.46Zm4.43-3.18a.19.19,0,0,1-.21.21h-.69a3.57,3.57,0,0,0-3.53-2.84,3.63,3.63,0,0,0-3.52,2.84h-3.8a3.57,3.57,0,0,0-3.53-2.84,3.63,3.63,0,0,0-3.52,2.84H27a.63.63,0,0,1-.62-.63V39.75a.62.62,0,0,1,.62-.62H43l3,3v1.11Z"/></svg>