<svg id="Layer_1" data-name="Layer 1" xmlns="http://www.w3.org/2000/svg" viewBox="0 0 50 50"><defs><style>.cls-1{fill:#102e19;}</style></defs><path class="cls-1" d="M25,2.93A22.07,22.07,0,1,1,2.93,25,22.09,22.09,0,0,1,25,2.93M25,0A25,25,0,1,0,50,25,25,25,0,0,0,25,0Z"/><path class="cls-1" d="M40.9,40H31.21a7.91,7.91,0,0,0,4.17-8.1h2.24a.47.47,0,0,0,.5-.5v-12h1.69a1.44,1.44,0,1,0,0-2.88H38.12V12.06a.93.93,0,0,0-.1-.35L35.68,9.08a.56.56,0,0,0-.39-.15.45.45,0,0,0-.4.2l-2.14,2.63a.71.71,0,0,0-.1.3v4.47H31V12.06a.93.93,0,0,0-.1-.35L28.58,9.08a.57.57,0,0,0-.4-.15.45.45,0,0,0-.4.2l-2.13,2.63a.71.71,0,0,0-.1.3v4.47H23.86V12.06a.93.93,0,0,0-.1-.35L21.47,9.08a.57.57,0,0,0-.4-.15.45.45,0,0,0-.39.2l-2.14,2.63a.71.71,0,0,0-.1.3v4.47H16.75V12.06a.93.93,0,0,0-.1-.35L14.42,9.08a.57.57,0,0,0-.4-.15.45.45,0,0,0-.4.2l-2.09,2.58a.46.46,0,0,0-.14.3v4.47H10A1.52,1.52,0,0,0,8.6,18,1.45,1.45,0,0,0,10,19.41h1.4v12a.46.46,0,0,0,.49.5h4.42a.47.47,0,0,0,.5-.5v-12h1.69v12a.47.47,0,0,0,.5.5h2.43a6,6,0,0,0,7,6.26c4.37-.84,6.06-6.46,2.38-9h0a4.25,4.25,0,0,0-6.16,1.34,3.6,3.6,0,0,0,.5,4.07,3.55,3.55,0,0,0,3.38.7c2.43-1,1.69-3.73-.25-3.38-.9.15-1.34,1.14-.75,1.39a.5.5,0,0,0,.65-.25c.35-.74,1.89.5-.05,1.3a2.7,2.7,0,0,1-2.29-.5,2.62,2.62,0,0,1-.34-2.93c2.13-3.83,8.2-.25,5.81,4-1.64,2.88-5.17,2.78-7.4.85a5.37,5.37,0,0,1,2.73-8.95c4.72-1.24,8.3,3.08,7.8,7.11a7.39,7.39,0,0,1-5.66,6c-1,.2-1.05.15-7,.15a4.64,4.64,0,0,0-3.28-4.87.45.45,0,0,0-.5.15.54.54,0,0,0-.05.55,3.4,3.4,0,0,1,0,3.37,4.78,4.78,0,0,0-3.28-4.07.44.44,0,0,0-.49.15.54.54,0,0,0-.05.55,3.43,3.43,0,0,1,0,3.37,4.79,4.79,0,0,0-3.28-4.07.45.45,0,0,0-.5.15.54.54,0,0,0-.05.55,3.33,3.33,0,0,1-.64,4.17H9.3a.5.5,0,1,0,0,1H40.9a.47.47,0,0,0,.5-.49A.51.51,0,0,0,40.9,40Zm-3.78-9.09h-2a8,8,0,0,0-1.44-2.69V19.41h3.42ZM33.7,12.21l1.63-2,1.79,2v4.32H33.7Zm-7.11,0,1.64-2,1.79,2v4.32H26.59Zm-7.11,0,1.64-2,1.79,2v4.32H19.48Zm-7.1,0,1.64-2,1.79,2v4.32H12.38ZM9.6,18a.45.45,0,0,1,.44-.45H39.81a.45.45,0,0,1,0,.9H10A.45.45,0,0,1,9.6,18ZM30,25.87h-.1a2.93,2.93,0,0,0-.65-.1h-.15a8.53,8.53,0,0,0-2.53.15V19.41H30ZM15.81,30.94H12.38V19.41h3.43Zm3.67-11.53h3.43v8.65a6.25,6.25,0,0,0-1.39,2.88h-2Zm5,7.35a4.1,4.1,0,0,0-.59.4V19.41h1.69v6.81C25.25,26.37,24.85,26.52,24.45,26.76ZM31,26.22V19.41H32.7v7.85A5.38,5.38,0,0,0,31,26.22ZM20.78,40H18.59a4.29,4.29,0,0,0,.65-3.43A3.45,3.45,0,0,1,20.78,40ZM17,40H14.76a4.25,4.25,0,0,0,.65-3.43A3.61,3.61,0,0,1,17,40ZM11.49,36.6A3.41,3.41,0,0,1,13,40H10.89A4.07,4.07,0,0,0,11.49,36.6Z"/></svg>