<svg id="Layer_1" data-name="Layer 1" xmlns="http://www.w3.org/2000/svg" viewBox="0 0 50 50"><defs><style>.cls-1{fill:#102e19;}</style></defs><path class="cls-1" d="M25,2.93A22.07,22.07,0,1,1,2.93,25,22.09,22.09,0,0,1,25,2.93M25,0A25,25,0,1,0,50,25,25,25,0,0,0,25,0Z"/><path class="cls-1" d="M14.55,11.54a2.7,2.7,0,1,0,5.39,0v-.25h1.28a.46.46,0,0,0,.49-.49.47.47,0,0,0-.49-.49H19.65a2.7,2.7,0,0,0-5.1,1.23Zm4.41,0a1.73,1.73,0,0,1-1.72,1.71,1.66,1.66,0,0,1-1.66-1.91H19C18.91,11.39,19,11.44,19,11.54Zm-.54-1.23H16a1.71,1.71,0,0,1,2.4,0Z"/><path class="cls-1" d="M40.78,36.7l-2.45-2.46A.46.46,0,0,0,38,34.1H35V33h1.12a.46.46,0,0,0,.49-.49,2.45,2.45,0,0,0-2.45-2.45H31.81a2.45,2.45,0,0,0-2.45,2.45.46.46,0,0,0,.49.49H31V34.1H28.67l-2.06-7.21a.54.54,0,0,0-.24-.3l-.79-.44a1.34,1.34,0,0,0-.78-1.32l-4.71-2.4V18.75a3.29,3.29,0,1,0-6.57,0c0,7.7-.1,7.84.19,8.68l1,4.8-5,4a1.68,1.68,0,0,0-.29,2.3l1.52,2a1.64,1.64,0,1,0,2.6-2L13,37.82l1.62-1.27L14.25,39a1.89,1.89,0,0,0,.39,1.33,1.75,1.75,0,0,0,1.23.58h2.55a1.67,1.67,0,1,0,0-3.33h-.64c.54-3.78.54-3.63.49-3.92l2.31-1.87c1.22-1,.39-2.2-.25-3.77A4.08,4.08,0,0,1,20,26.35v-.74l3.38,1.72A1.44,1.44,0,0,0,25.09,27l.54.29,1.91,6.72H26.32a1.43,1.43,0,0,0-1.43,1.42v2.21a1.43,1.43,0,0,0,1.43,1.42h.19a2.55,2.55,0,0,0,5,0h2.8a2.55,2.55,0,0,0,5,0h.49A1.11,1.11,0,0,0,40.93,38V37A.4.4,0,0,0,40.78,36.7ZM15.09,29.14a3,3,0,0,0,1.76.49,3.44,3.44,0,0,0,.64,0l.15.34-2.06,1.62ZM17,38.36a.54.54,0,0,0,.39.15h1.23a.67.67,0,0,1,.68.69.66.66,0,0,1-.68.68H16a.59.59,0,0,1-.49-.24.55.55,0,0,1-.15-.54l.49-3.43,1.52-1.23L16.9,38A.29.29,0,0,0,17,38.36ZM24,26.5l-5.15-2.6s-.14-.1-.19-.15l-2.21-3.53a.48.48,0,0,0-.69-.15.49.49,0,0,0-.14.69l2.2,3.53a1.7,1.7,0,0,0,.59.54l.79.39V26.5a5,5,0,0,0,.34,2c.74,1.81,1.08,2.2.54,2.6-1,.78-7.26,5.78-8,6.37a.52.52,0,0,0-.1.69l.83,1.08a.6.6,0,0,1-.15.93.69.69,0,0,1-.93-.15l-1.52-2a1,1,0,0,1,.15-1c8.83-7,8.58-6.62,8.39-7.11l-.45-1.08a.54.54,0,0,0-.63-.29,2.22,2.22,0,0,1-.79.14,2.29,2.29,0,0,1-2.16-1.52c-.19-1.08-.14.49-.14-8.38a2.31,2.31,0,1,1,4.61,0V21L18,19.24a.48.48,0,0,0-.69-.15.5.5,0,0,0-.15.69l2.06,3.33a.39.39,0,0,0,.2.2l4.9,2.5a.47.47,0,0,1,.2.59A.59.59,0,0,1,24,26.5Zm7.85,4.56h2.35a1.44,1.44,0,0,1,1.38,1H30.39A1.48,1.48,0,0,1,31.81,31.06ZM32,33H34V34.1H32Zm-2.85,7.21a1.57,1.57,0,1,1,1.57-1.57A1.55,1.55,0,0,1,29.11,40.23Zm7.7,0a1.57,1.57,0,1,1,1.57-1.57A1.55,1.55,0,0,1,36.81,40.23ZM40,38a.13.13,0,0,1-.15.15h-.49a2.52,2.52,0,0,0-2.5-2,2.58,2.58,0,0,0-2.5,2h-2.7a2.52,2.52,0,0,0-2.5-2,2.58,2.58,0,0,0-2.5,2h-.2a.44.44,0,0,1-.44-.44V35.47a.44.44,0,0,1,.44-.44H37.74l2.16,2.16V38Z"/></svg>