<svg id="Layer_1" data-name="Layer 1" xmlns="http://www.w3.org/2000/svg" viewBox="0 0 50 50"><defs><style>.cls-1{fill:#102e19;}</style></defs><path class="cls-1" d="M25,2.93A22.07,22.07,0,1,1,2.93,25,22.09,22.09,0,0,1,25,2.93M25,0A25,25,0,1,0,50,25,25,25,0,0,0,25,0Z"/><path class="cls-1" d="M39.93,27.94a.58.58,0,0,0-.37-.19H36.33a11.44,11.44,0,0,1,3.37-8.07.52.52,0,0,0,.14-.51c0-.19-.23-.28-.41-.33-3.6-.23-5.91,2.64-7.11,4.8-.6-2.07-3.14-3.18-5-3.46a.45.45,0,0,0-.41.74,3.78,3.78,0,0,1-.37,5,3.59,3.59,0,0,0-3.37-1.67l-4.76-2.07-.36-1.94c.23-.37.46-.74.64-1.06h0a2.87,2.87,0,0,0-.64-3.93,2.81,2.81,0,0,0-3.93.65,23.53,23.53,0,0,0-3.92,10.2,2.42,2.42,0,0,0,.32,1.52l-.6,9.24a1.64,1.64,0,0,0,3.28.23l.51-7.85,2.67,1.71,2.68,5.95a1.66,1.66,0,0,0,2.17.83,1.64,1.64,0,0,0,.83-2.17l-2.86-6.37a1.5,1.5,0,0,0-.6-.69l-2.77-1.71a13.16,13.16,0,0,1,.51-2.44,1.6,1.6,0,0,0,.32.23l6.46,2.72a1,1,0,0,0,.51.09l.14.37h-2a.42.42,0,0,0-.37.19c-.09.14-.14.23-.09.37L23,37.45a1.59,1.59,0,0,0,1.53,1.24h.6a2,2,0,0,0,3.87,0h3.37a2,2,0,0,0,3.88,0h.6a1.57,1.57,0,0,0,1.52-1.24l1.71-9.14A1.92,1.92,0,0,0,39.93,27.94ZM12.29,37a.72.72,0,0,1-1.44-.09l.56-8.26a3,3,0,0,0,1.38.51ZM17,23.6a.52.52,0,0,1-.28-.32l-1-5.08a.47.47,0,0,0-.93.18L15.75,23h0a14.58,14.58,0,0,0-.88,3.78.54.54,0,0,0,.19.51l3,1.85a.6.6,0,0,1,.27.32l2.86,6.37a.73.73,0,0,1-.6,1,.63.63,0,0,1-.69-.42l-2.72-6.05A.37.37,0,0,0,17,30.2l-3.09-2a.5.5,0,0,0-.37,0,1.89,1.89,0,0,1-2.4-2,22.2,22.2,0,0,1,3.74-9.74,1.89,1.89,0,1,1,3.05,2.22c-.05.09-.1.14-.14.23l-.19-1.06a.47.47,0,0,0-.55-.37.48.48,0,0,0-.37.55l.92,4.57a.52.52,0,0,0,.28.33c8.17,3.6,3.69,1.61,6.05,2.67a.49.49,0,0,1-.42.88Zm7.48,3.55A1.38,1.38,0,0,0,25,26.6a1.26,1.26,0,0,0,.05-.92,2.23,2.23,0,0,1,.92,1.2.45.45,0,0,0,.74.23c1.1-.93,2.67-3.23,1.57-5.68a5.19,5.19,0,0,1,2.9,1.94c1.07,1.71-.46,2.95.37,3.27.28.14.56,0,.7-.41,1.1-2.86,3.09-5.86,6.09-6.32a11.84,11.84,0,0,0-2.86,7.89H24.7A2.59,2.59,0,0,0,24.52,27.15ZM27,39.29A1,1,0,0,1,26,38.23h0a1.06,1.06,0,0,1,2.12,0h0A1,1,0,0,1,27,39.29Zm7.25,0a1,1,0,0,1-1.06-1.06h0a1.06,1.06,0,0,1,2.12,0h0A1,1,0,0,1,34.26,39.29Zm3.14-2a.65.65,0,0,1-.6.51h-.6a2,2,0,0,0-3.88,0H28.9a2,2,0,0,0-3.87,0h-.51a.6.6,0,0,1-.6-.46L22.3,28.72H39Z"/><path class="cls-1" d="M21.61,13.81a2.53,2.53,0,0,0,.55-1.8A2.44,2.44,0,0,0,19.49,9.8a2.39,2.39,0,0,0-1.67.87,2.56,2.56,0,0,0-.55,1.8A2.48,2.48,0,0,0,21.61,13.81Zm-3.05-2.58a1.55,1.55,0,0,1,2.73.83,1.53,1.53,0,0,1-3.05.28A1.39,1.39,0,0,1,18.56,11.23Z"/></svg>